<svg width="30" height="33" viewBox="0 0 30 33" fill="none" xmlns="http://www.w3.org/2000/svg">
<path d="M18.802 19.5713C19.9307 18.0683 20.6436 16.1406 20.6436 14.0168C20.6436 9.24653 17.1089 5.35841 12.7723 5.35841C8.43564 5.35841 4.90099 9.24653 4.90099 14.0168C4.90099 18.7871 8.43564 22.6752 12.7723 22.6752C14.6733 22.6752 16.4554 21.9238 17.8218 20.6495L23.9406 27.3802C24.0891 27.5436 24.2673 27.6089 24.4455 27.6089C24.6238 27.6089 24.802 27.5436 24.9505 27.3802C25.2178 27.0861 25.2178 26.5634 24.9505 26.2693L18.802 19.5713ZM12.7426 21.1069C9.17821 21.1069 6.29703 17.9376 6.29703 14.0168C6.29703 10.096 9.17821 6.92673 12.7426 6.92673C16.3069 6.92673 19.1881 10.096 19.1881 14.0168C19.1881 17.9376 16.3069 21.1069 12.7426 21.1069Z" fill="#0B0B0B" fill-opacity="0.5"/>
</svg>
