<svg width="52" height="52" viewBox="0 0 52 52" fill="none" xmlns="http://www.w3.org/2000/svg">
<path d="M26 52C32.8956 52 39.5088 49.2607 44.3848 44.3848C49.2607 39.5088 52 32.8956 52 26C52 19.1044 49.2607 12.4912 44.3848 7.61522C39.5088 2.73928 32.8956 0 26 0C19.1044 0 12.4912 2.73928 7.61522 7.61522C2.73928 12.4912 0 19.1044 0 26C0 32.8956 2.73928 39.5088 7.61522 44.3848C12.4912 49.2607 19.1044 52 26 52ZM13.7211 22.0797L24.5984 11.9336C24.9844 11.5781 25.482 11.375 26 11.375C26.518 11.375 27.0258 11.5781 27.4016 11.9336L38.2789 22.0797C38.7359 22.5062 39 23.1055 39 23.7352C39 24.9844 37.9844 26 36.7352 26H30.875V35.75C30.875 37.5477 29.4227 39 27.625 39H24.375C22.5773 39 21.125 37.5477 21.125 35.75V26H15.2648C14.0156 26 13 24.9844 13 23.7352C13 23.1055 13.2641 22.5062 13.7211 22.0797Z" fill="black"/>
</svg>
