<svg width="52" height="52" viewBox="0 0 52 52" fill="none" xmlns="http://www.w3.org/2000/svg">
<path d="M26 0C19.1044 0 12.4912 2.73928 7.61522 7.61522C2.73928 12.4912 0 19.1044 0 26C0 32.8956 2.73928 39.5088 7.61522 44.3848C12.4912 49.2607 19.1044 52 26 52C32.8956 52 39.5088 49.2607 44.3848 44.3848C49.2607 39.5088 52 32.8956 52 26C52 19.1044 49.2607 12.4912 44.3848 7.61522C39.5088 2.73928 32.8956 0 26 0ZM38.2789 29.9203L27.4016 40.0664C27.0156 40.4219 26.518 40.625 26 40.625C25.482 40.625 24.9742 40.4219 24.5984 40.0664L13.7211 29.9203C13.2641 29.4938 13 28.8945 13 28.2648C13 27.0156 14.0156 26 15.2648 26H21.125V16.25C21.125 14.4523 22.5773 13 24.375 13H27.625C29.4227 13 30.875 14.4523 30.875 16.25V26H36.7352C37.9844 26 39 27.0156 39 28.2648C39 28.8945 38.7359 29.4938 38.2789 29.9203Z" fill="black"/>
</svg>
